<?xml version="1.0" standalone="no"?>
<!DOCTYPE svg PUBLIC "-//W3C//DTD SVG 20010904//EN"
 "http://www.w3.org/TR/2001/REC-SVG-20010904/DTD/svg10.dtd">
<svg version="1.0" xmlns="http://www.w3.org/2000/svg"
 width="712.000000pt" height="211.000000pt" viewBox="0 0 712.000000 211.000000"
 preserveAspectRatio="xMidYMid meet">

<g transform="translate(0.000000,211.000000) scale(0.100000,-0.100000)"
fill="#000000" stroke="none">
<path d="M342 1753 c-18 -9 -45 -32 -60 -51 l-27 -35 0 -657 0 -657 27 -35
c54 -71 14 -68 820 -68 l723 0 40 23 c26 14 48 37 63 67 l22 44 0 626 0 626
-22 44 c-15 30 -37 53 -63 67 l-40 23 -725 0 c-651 0 -728 -2 -758 -17z m725
-458 c17 -82 32 -152 32 -155 1 -3 48 66 106 153 l105 157 155 0 c92 0 155 -4
155 -10 0 -5 -25 -116 -55 -246 -30 -131 -55 -239 -55 -241 0 -2 11 -3 25 -3
14 0 25 -3 25 -7 0 -5 -19 -90 -42 -190 l-43 -183 -147 0 c-82 0 -148 3 -148
6 0 6 54 240 66 289 3 11 -13 -8 -36 -42 l-40 -63 -105 0 c-117 0 -107 -8
-123 90 -7 42 -9 38 -46 -118 l-38 -162 -143 0 -142 0 37 166 c21 91 41 176
44 190 6 21 3 24 -19 24 -14 0 -25 4 -25 10 0 5 25 116 55 246 30 131 55 239
55 241 0 2 71 2 158 1 l157 -3 32 -150z"/>
<path d="M2270 1015 l0 -285 70 0 69 0 3 153 3 152 50 -87 50 -88 71 0 71 0
51 88 51 87 1 -152 0 -153 70 0 70 0 0 285 0 285 -68 0 -68 0 -88 -156 c-78
-138 -89 -154 -100 -137 -7 10 -48 80 -90 156 l-77 137 -70 0 -69 0 0 -285z"/>
<path d="M3010 1015 l0 -285 210 0 210 0 0 65 0 65 -140 0 -140 0 0 45 0 45
110 0 110 0 0 65 0 65 -110 0 -110 0 0 45 0 45 140 0 141 0 -3 63 -3 62 -207
3 -208 2 0 -285z"/>
<path d="M3668 1285 c-67 -22 -140 -96 -163 -164 -22 -67 -17 -189 9 -241 60
-116 172 -165 339 -148 100 10 97 7 97 89 0 64 -2 70 -17 64 -63 -26 -177 -32
-227 -11 -57 24 -76 58 -76 142 0 95 24 127 106 144 52 11 148 3 199 -16 12
-5 15 6 15 64 0 84 3 82 -135 88 -71 3 -113 0 -147 -11z"/>
<path d="M4030 1015 l0 -285 70 0 70 0 0 110 0 110 100 0 100 0 0 -110 0 -110
70 0 70 0 0 285 0 285 -70 0 -70 0 0 -110 0 -110 -100 0 -100 0 0 110 0 110
-70 0 -70 0 0 -285z"/>
<path d="M4682 1023 c-62 -153 -112 -281 -112 -285 0 -5 33 -8 73 -8 l73 0 21
58 20 57 104 0 104 0 20 -57 20 -58 76 0 77 0 -113 283 -113 282 -69 3 -69 3
-112 -278z m184 -41 c-26 -2 -50 -1 -53 2 -5 5 11 59 35 116 l15 35 26 -75 26
-75 -49 -3z"/>
<path d="M5218 1294 c-5 -4 -8 -133 -8 -286 l0 -278 165 0 c176 0 215 8 263
53 66 61 70 175 8 226 -13 11 -12 16 6 47 46 78 11 175 -82 225 -28 15 -339
27 -352 13z m306 -145 c15 -22 11 -48 -8 -61 -6 -4 -46 -8 -88 -8 l-78 0 0 45
0 45 79 0 c70 0 82 -3 95 -21z m14 -211 c7 -7 12 -21 12 -33 0 -37 -19 -45
-112 -45 l-88 0 0 45 0 45 88 0 c55 0 92 -4 100 -12z"/>
<path d="M5926 1280 c-105 -41 -169 -141 -170 -265 0 -114 53 -207 149 -259
33 -17 57 -21 140 -21 109 0 134 8 200 67 64 55 80 99 80 213 0 117 -17 159
-87 219 -76 65 -212 85 -312 46z m201 -130 c44 -26 63 -68 63 -137 0 -100 -51
-153 -147 -153 -55 0 -102 24 -130 67 -26 40 -25 142 3 180 45 61 147 82 211
43z"/>
<path d="M6393 1284 c-3 -8 -3 -53 -1 -98 8 -121 48 -190 135 -228 l43 -19 0
-104 0 -105 70 0 70 0 0 103 0 104 41 18 c49 23 106 86 119 134 5 20 10 76 10
124 l0 88 -67 -3 -68 -3 -5 -91 c-6 -103 -14 -119 -72 -134 -32 -9 -46 -8 -76
7 -45 22 -61 61 -61 156 l-1 67 -65 0 c-51 0 -67 -4 -72 -16z"/>
</g>
</svg>
